<svg width="50" height="50" viewBox="0 0 50 50" fill="none" xmlns="http://www.w3.org/2000/svg">
<path d="M29.1172 1.5625H10.1172C7.50781 1.5625 5.39062 3.67969 5.39062 6.28906V43.7109C5.39062 46.3203 7.50781 48.4375 10.1172 48.4375H29.1172C31.7188 48.4375 33.8437 46.3203 33.8437 43.7109V31.4766H42.2891C42.9044 31.4766 43.4946 31.2321 43.9298 30.797C44.3649 30.3618 44.6094 29.7716 44.6094 29.1562V20.8438C44.6094 20.2284 44.3649 19.6382 43.9298 19.203C43.4946 18.7679 42.9044 18.5234 42.2891 18.5234H33.8437V6.28906C33.8437 3.67969 31.7188 1.5625 29.1172 1.5625ZM22.5625 6.10156C22.5625 6.53906 22.2188 6.88281 21.7812 6.88281H16.3125C15.8828 6.88281 15.5312 6.53906 15.5312 6.10156C15.5312 5.67188 15.8828 5.32031 16.3125 5.32031H21.7812C22.2188 5.32031 22.5625 5.67188 22.5625 6.10156ZM22.9141 44.6797H16.3125C15.8828 44.6797 15.5312 44.3281 15.5312 43.8984C15.5312 43.4609 15.8828 43.1172 16.3125 43.1172H22.9141C23.3438 43.1172 23.6953 43.4609 23.6953 43.8984C23.6953 44.3281 23.3438 44.6797 22.9141 44.6797ZM43.0469 20.8438V29.1562C43.0469 29.5781 42.7109 29.9141 42.2891 29.9141H14.1953C13.7734 29.9141 13.4297 29.5781 13.4297 29.1562V20.8438C13.4297 20.4219 13.7734 20.0859 14.1953 20.0859H42.2891C42.7109 20.0859 43.0469 20.4219 43.0469 20.8438Z" fill="#6B7280"/>
<path d="M15.7753 26.4524C15.8276 26.5407 15.8967 26.6178 15.9788 26.6794C16.0609 26.7409 16.1544 26.7856 16.2538 26.811C16.3532 26.8364 16.4566 26.842 16.5582 26.8274C16.6597 26.8127 16.7574 26.7782 16.8456 26.7258L17.4448 26.3711V27.0672C17.4448 27.2744 17.5272 27.4732 17.6737 27.6197C17.8202 27.7662 18.0189 27.8485 18.2261 27.8485C18.4333 27.8485 18.632 27.7662 18.7785 27.6197C18.925 27.4732 19.0073 27.2744 19.0073 27.0672V26.3719L19.6066 26.7258C19.6948 26.7782 19.7925 26.8126 19.894 26.8272C19.9955 26.8417 20.099 26.8362 20.1983 26.8108C20.2977 26.7854 20.3911 26.7407 20.4733 26.6792C20.5554 26.6177 20.6245 26.5406 20.6769 26.4524C20.7292 26.3642 20.7636 26.2665 20.7782 26.1649C20.7928 26.0634 20.7872 25.96 20.7618 25.8606C20.7364 25.7612 20.6917 25.6678 20.6302 25.5857C20.5687 25.5036 20.4917 25.4344 20.4034 25.3821L19.7581 25L20.4019 24.618C20.492 24.5667 20.571 24.4979 20.6343 24.4157C20.6975 24.3334 20.7438 24.2394 20.7703 24.1392C20.7969 24.0389 20.8032 23.9343 20.7889 23.8316C20.7746 23.7288 20.74 23.63 20.6871 23.5407C20.6341 23.4515 20.564 23.3737 20.4807 23.3119C20.3974 23.2501 20.3026 23.2055 20.2019 23.1807C20.1012 23.1559 19.9965 23.1514 19.894 23.1674C19.7915 23.1835 19.6933 23.2198 19.605 23.2743L19.0066 23.629V22.9329C19.0066 22.7257 18.9243 22.5269 18.7777 22.3804C18.6312 22.2339 18.4325 22.1516 18.2253 22.1516C18.0181 22.1516 17.8194 22.2339 17.6729 22.3804C17.5264 22.5269 17.4441 22.7257 17.4441 22.9329V23.6282L16.8456 23.2743C16.7573 23.2198 16.6591 23.1835 16.5566 23.1674C16.4541 23.1514 16.3495 23.1559 16.2487 23.1807C16.148 23.2055 16.0532 23.2501 15.9699 23.3119C15.8866 23.3737 15.8165 23.4515 15.7636 23.5407C15.7107 23.63 15.676 23.7288 15.6618 23.8316C15.6475 23.9343 15.6538 24.0389 15.6803 24.1392C15.7069 24.2394 15.7531 24.3334 15.8164 24.4157C15.8796 24.4979 15.9586 24.5667 16.0487 24.618L16.6933 25L16.0487 25.3821C15.8706 25.4878 15.7417 25.6599 15.6904 25.8606C15.6391 26.0613 15.6697 26.2742 15.7753 26.4524ZM22.4519 26.4524C22.5041 26.5407 22.5733 26.6178 22.6554 26.6794C22.7375 26.7409 22.8309 26.7856 22.9303 26.811C23.0297 26.8364 23.1332 26.842 23.2347 26.8274C23.3363 26.8127 23.434 26.7782 23.5222 26.7258L24.1214 26.3711V27.0672C24.1214 27.2744 24.2037 27.4732 24.3502 27.6197C24.4967 27.7662 24.6955 27.8485 24.9027 27.8485C25.1099 27.8485 25.3086 27.7662 25.4551 27.6197C25.6016 27.4732 25.6839 27.2744 25.6839 27.0672V26.3719L26.2831 26.7258C26.3714 26.7782 26.469 26.8126 26.5706 26.8272C26.6721 26.8417 26.7755 26.8362 26.8749 26.8108C26.9743 26.7854 27.0677 26.7407 27.1498 26.6792C27.2319 26.6177 27.3011 26.5406 27.3534 26.4524C27.4058 26.3642 27.4402 26.2665 27.4548 26.1649C27.4693 26.0634 27.4638 25.96 27.4384 25.8606C27.413 25.7612 27.3683 25.6678 27.3068 25.5857C27.2453 25.5036 27.1682 25.4344 27.08 25.3821L26.4339 25L27.0784 24.618C27.1686 24.5667 27.2476 24.4979 27.3108 24.4157C27.3741 24.3334 27.4203 24.2394 27.4469 24.1392C27.4734 24.0389 27.4797 23.9343 27.4654 23.8316C27.4511 23.7288 27.4165 23.63 27.3636 23.5407C27.3107 23.4515 27.2405 23.3737 27.1573 23.3119C27.074 23.2501 26.9792 23.2055 26.8785 23.1807C26.7777 23.1559 26.6731 23.1514 26.5706 23.1674C26.4681 23.1835 26.3699 23.2198 26.2816 23.2743L25.6831 23.629V22.9329C25.6831 22.7257 25.6008 22.5269 25.4543 22.3804C25.3078 22.2339 25.1091 22.1516 24.9019 22.1516C24.6947 22.1516 24.496 22.2339 24.3494 22.3804C24.2029 22.5269 24.1206 22.7257 24.1206 22.9329V23.6282L23.5214 23.2743C23.4331 23.2198 23.3349 23.1835 23.2324 23.1674C23.1299 23.1514 23.0252 23.1559 22.9245 23.1807C22.8238 23.2055 22.729 23.2501 22.6457 23.3119C22.5624 23.3737 22.4923 23.4515 22.4394 23.5407C22.3864 23.63 22.3518 23.7288 22.3375 23.8316C22.3232 23.9343 22.3295 24.0389 22.3561 24.1392C22.3826 24.2394 22.4289 24.3334 22.4921 24.4157C22.5554 24.4979 22.6344 24.5667 22.7245 24.618L23.3698 25L22.7253 25.3821C22.5471 25.4878 22.4182 25.6599 22.367 25.8606C22.3157 26.0613 22.3462 26.2742 22.4519 26.4524ZM29.1292 26.4524C29.1815 26.5407 29.2506 26.6178 29.3327 26.6794C29.4148 26.7409 29.5083 26.7856 29.6077 26.811C29.7071 26.8364 29.8105 26.842 29.9121 26.8274C30.0136 26.8127 30.1113 26.7782 30.1995 26.7258L30.7987 26.3711V27.0672C30.7987 27.2744 30.8811 27.4732 31.0276 27.6197C31.1741 27.7662 31.3728 27.8485 31.58 27.8485C31.7872 27.8485 31.9859 27.7662 32.1324 27.6197C32.2789 27.4732 32.3612 27.2744 32.3612 27.0672V26.3719L32.9597 26.7258C33.1379 26.8315 33.3508 26.8621 33.5515 26.8108C33.7522 26.7595 33.9243 26.6306 34.03 26.4524C34.1357 26.2742 34.1662 26.0613 34.1149 25.8606C34.0637 25.6599 33.9348 25.4878 33.7566 25.3821L33.112 25L33.7566 24.618C33.8467 24.5667 33.9257 24.4979 33.9889 24.4157C34.0522 24.3334 34.0985 24.2394 34.125 24.1392C34.1515 24.0389 34.1579 23.9343 34.1436 23.8316C34.1293 23.7288 34.0947 23.63 34.0417 23.5407C33.9888 23.4515 33.9187 23.3737 33.8354 23.3119C33.7521 23.2501 33.6573 23.2055 33.5566 23.1807C33.4559 23.1559 33.3512 23.1514 33.2487 23.1674C33.1462 23.1835 33.048 23.2198 32.9597 23.2743L32.3612 23.629V22.9329C32.3612 22.7257 32.2789 22.5269 32.1324 22.3804C31.9859 22.2339 31.7872 22.1516 31.58 22.1516C31.3728 22.1516 31.1741 22.2339 31.0276 22.3804C30.8811 22.5269 30.7987 22.7257 30.7987 22.9329V23.6282L30.1995 23.2743C30.1112 23.2198 30.013 23.1835 29.9105 23.1674C29.808 23.1514 29.7034 23.1559 29.6026 23.1807C29.5019 23.2055 29.4071 23.2501 29.3238 23.3119C29.2405 23.3737 29.1704 23.4515 29.1175 23.5407C29.0646 23.63 29.03 23.7288 29.0157 23.8316C29.0014 23.9343 29.0077 24.0389 29.0342 24.1392C29.0608 24.2394 29.107 24.3334 29.1703 24.4157C29.2335 24.4979 29.3125 24.5667 29.4027 24.618L30.0472 25L29.4034 25.3821C29.2253 25.4878 29.0964 25.6599 29.0451 25.8606C28.9938 26.0613 29.0236 26.2742 29.1292 26.4524ZM35.8058 26.4524C35.858 26.5407 35.9272 26.6178 36.0093 26.6794C36.0914 26.7409 36.1848 26.7856 36.2842 26.811C36.3836 26.8364 36.4871 26.842 36.5886 26.8274C36.6902 26.8127 36.7879 26.7782 36.8761 26.7258L37.4753 26.3711V27.0672C37.4753 27.2744 37.5576 27.4732 37.7041 27.6197C37.8506 27.7662 38.0494 27.8485 38.2566 27.8485C38.4638 27.8485 38.6625 27.7662 38.809 27.6197C38.9555 27.4732 39.0378 27.2744 39.0378 27.0672V26.3719L39.6362 26.7258C39.7245 26.7782 39.8222 26.8126 39.9237 26.8272C40.0252 26.8417 40.1286 26.8362 40.228 26.8108C40.3274 26.7854 40.4208 26.7407 40.5029 26.6792C40.585 26.6177 40.6542 26.5406 40.7066 26.4524C40.7589 26.3642 40.7933 26.2665 40.8079 26.1649C40.8225 26.0634 40.8169 25.96 40.7915 25.8606C40.7661 25.7612 40.7214 25.6678 40.6599 25.5857C40.5984 25.5036 40.5214 25.4344 40.4331 25.3821L39.7886 25L40.4331 24.618C40.5233 24.5667 40.6022 24.4979 40.6655 24.4157C40.7288 24.3334 40.775 24.2394 40.8016 24.1392C40.8281 24.0389 40.8344 23.9343 40.8201 23.8316C40.8058 23.7288 40.7712 23.63 40.7183 23.5407C40.6654 23.4515 40.5952 23.3737 40.5119 23.3119C40.4286 23.2501 40.3339 23.2055 40.2331 23.1807C40.1324 23.1559 40.0278 23.1514 39.9253 23.1674C39.8228 23.1835 39.7245 23.2198 39.6362 23.2743L39.0378 23.629V22.9329C39.0378 22.7257 38.9555 22.5269 38.809 22.3804C38.6625 22.2339 38.4638 22.1516 38.2566 22.1516C38.0494 22.1516 37.8506 22.2339 37.7041 22.3804C37.5576 22.5269 37.4753 22.7257 37.4753 22.9329V23.6282L36.8761 23.2743C36.7879 23.2219 36.6902 23.1875 36.5886 23.1729C36.4871 23.1584 36.3837 23.1639 36.2843 23.1893C36.1849 23.2147 36.0915 23.2594 36.0094 23.3209C35.9273 23.3824 35.8581 23.4595 35.8058 23.5477C35.7535 23.6359 35.719 23.7336 35.7044 23.8351C35.6899 23.9367 35.6954 24.0401 35.7208 24.1395C35.7462 24.2389 35.7909 24.3323 35.8524 24.4144C35.9139 24.4965 35.991 24.5657 36.0792 24.618L36.7237 25L36.08 25.3821C35.9018 25.4878 35.7729 25.6599 35.7217 25.8606C35.6704 26.0613 35.7001 26.2742 35.8058 26.4524Z" fill="#6B7280"/>
</svg>
