<svg width="42" height="38" viewBox="0 0 42 38" fill="none" xmlns="http://www.w3.org/2000/svg">
<path d="M37.8396 25.5689C37.6152 25.5661 37.3925 25.6083 37.1847 25.693C36.9769 25.7777 36.7882 25.9032 36.6298 26.062C36.4713 26.2209 36.3463 26.4099 36.2621 26.6179C36.1779 26.8259 36.1362 27.0487 36.1396 27.2731V31.5335C36.1396 33.0252 34.8646 34.0918 33.5875 34.0918H29.3375C29.1129 34.0887 28.8901 34.1307 28.682 34.2153C28.474 34.2999 28.285 34.4253 28.1263 34.5842C27.9676 34.7431 27.8424 34.9322 27.7581 35.1404C27.6738 35.3485 27.6321 35.5714 27.6354 35.796C27.6354 36.8606 28.2729 37.5002 29.3375 37.5002H33.5875C34.3705 37.5007 35.1459 37.3466 35.8693 37.0468C36.5926 36.747 37.2496 36.3073 37.8027 35.7529C38.3557 35.1986 38.7938 34.5405 39.0918 33.8164C39.3899 33.0923 39.542 32.3165 39.5396 31.5335V27.2731C39.5396 26.4189 38.6896 25.5689 37.8396 25.5689ZM29.3375 3.40849H33.5875C35.0771 3.40849 36.1396 4.68766 36.1396 5.96683V10.2272C36.1396 11.0814 36.7771 11.9314 37.8396 11.9314C38.9021 11.9314 39.5417 11.2939 39.5417 10.2272V5.96683C39.5417 2.77099 36.9896 0.000158982 33.5875 0.000158982H29.3375C29.1129 -0.00293112 28.8901 0.0390535 28.682 0.123628C28.474 0.208203 28.285 0.333649 28.1263 0.492543C27.9676 0.651437 27.8424 0.840551 27.7581 1.04869C27.6738 1.25684 27.6321 1.47978 27.6354 1.70433C27.6354 2.77099 28.4875 3.40849 29.3375 3.40849ZM12.3292 34.0918H8.07917C6.58958 34.0918 5.52708 32.8127 5.52708 31.5335V27.2731C5.52708 26.4189 4.88958 25.5689 3.82708 25.5689C2.76458 25.5689 2.125 26.421 2.125 27.2731V31.5335C2.125 34.7314 4.67708 37.5002 8.07917 37.5002H12.3292C12.5537 37.5032 12.7766 37.4613 12.9846 37.3767C13.1927 37.2921 13.3816 37.1667 13.5403 37.0078C13.699 36.8489 13.8243 36.6598 13.9086 36.4516C13.9929 36.2435 14.0346 36.0205 14.0312 35.796C14.0346 35.5714 13.9929 35.3485 13.9086 35.1404C13.8243 34.9322 13.699 34.7431 13.5403 34.5842C13.3816 34.4253 13.1927 34.2999 12.9846 34.2153C12.7766 34.1307 12.5537 34.0887 12.3292 34.0918ZM3.82708 11.9314C4.05146 11.9342 4.27413 11.892 4.48192 11.8073C4.68972 11.7226 4.87843 11.5971 5.03691 11.4383C5.19538 11.2794 5.32041 11.0904 5.4046 10.8824C5.48879 10.6744 5.53044 10.4516 5.52708 10.2272V5.96683C5.52708 4.47516 6.80208 3.40849 8.07917 3.40849H12.3292C12.5537 3.41158 12.7766 3.3696 12.9846 3.28502C13.1927 3.20045 13.3816 3.075 13.5403 2.91611C13.699 2.75721 13.8243 2.5681 13.9086 2.35996C13.9929 2.15181 14.0346 1.92887 14.0312 1.70433C14.0346 1.47978 13.9929 1.25684 13.9086 1.04869C13.8243 0.840551 13.699 0.651437 13.5403 0.492543C13.3816 0.333649 13.1927 0.208203 12.9846 0.123628C12.7766 0.0390535 12.5537 -0.00293112 12.3292 0.000158982H8.07917C4.88958 0.000158982 2.125 2.77099 2.125 5.96683V10.2272C2.125 11.0814 2.97708 11.9314 3.82708 11.9314Z" fill="#009688"/>
<path d="M29.3377 31.5335C30.465 31.528 31.5444 31.077 32.3405 30.2789C33.1366 29.4808 33.5849 28.4003 33.5877 27.273V23.4397H8.08144V27.273C8.08417 28.4003 8.53249 29.4808 9.32863 30.2789C10.1248 31.077 11.2042 31.528 12.3314 31.5335H29.3377ZM39.9669 17.046H33.5898V10.2272C33.587 9.09956 33.1384 8.01876 32.3418 7.22061C31.5452 6.42246 30.4653 5.97174 29.3377 5.9668H12.3294C11.2021 5.97229 10.1227 6.42325 9.32654 7.22134C8.53041 8.01943 8.08209 9.09992 8.07935 10.2272V17.473H1.70019C1.47581 17.4702 1.25315 17.5124 1.04535 17.5971C0.837553 17.6818 0.648842 17.8073 0.490364 17.9662C0.331887 18.1251 0.206859 18.3141 0.122668 18.5221C0.0384764 18.7301 -0.00317037 18.9528 0.000188094 19.1772C0.000188094 20.2418 0.637688 20.8814 1.70019 20.8814H39.9669C40.1912 20.8842 40.4139 20.842 40.6217 20.7573C40.8295 20.6726 41.0182 20.5471 41.1767 20.3882C41.3352 20.2294 41.4602 20.0404 41.5444 19.8324C41.6286 19.6244 41.6702 19.4016 41.6669 19.1772C41.6669 18.1105 40.8169 17.046 39.9669 17.046Z" fill="#009688"/>
</svg>
